<svg id="svg-test" width="152px" height="25px" viewBox="0 0 1152 149" version="1.1" xmlns="http://www.w3.org/2000/svg" xmlns:xlink="http://www.w3.org/1999/xlink"><title>Powered By OneTrust</title><desc>Link to OneTrust Website</desc><g stroke="none" stroke-width="1" fill="none" fill-rule="evenodd"><g transform="translate(-23.000000, -20.000000)"><g transform="translate(658.000000, 0.000000)"><g transform="translate(-90.000000, 35.000000)"><path d="M76.18,42.6 C76.18,55.8533333 72.8466667,66.2733333 66.18,73.86 C59.5133333,81.4466667 50.18,85.24 38.18,85.24 C25.98,85.24 16.5866667,81.4933333 10,74 C3.41333333,66.5066667 0.08,56 0,42.48 C0,29 3.33333333,18.5466667 10,11.12 C16.6666667,3.69333333 26.0933333,-0.0133333333 38.28,1.77635684e-15 C50.1733333,1.77635684e-15 59.46,3.77333333 66.14,11.32 C72.82,18.8666667 76.1666667,29.2933333 76.18,42.6 Z M10.18,42.6 C10.18,53.8133333 12.5666667,62.32 17.34,68.12 C22.1133333,73.92 29.06,76.8133333 38.18,76.8 C47.3533333,76.8 54.28,73.9133333 58.96,68.14 C63.64,62.3666667 65.9866667,53.8533333 66,42.6 C66,31.4666667 63.6666667,23.02 59,17.26 C54.3333333,11.5 47.4266667,8.61333333 38.28,8.6 C29.1066667,8.6 22.1333333,11.5 17.36,17.3 C12.5866667,23.1 10.2,31.5333333 10.2,42.6 L10.18,42.6 Z" fill="#6FBE4A" fill-rule="nonzero"/><path d="M135.72,84.12 L135.72,44 C135.72,38.9466667 134.566667,35.1733333 132.26,32.68 C129.953333,30.1866667 126.346667,28.94 121.44,28.94 C114.946667,28.94 110.186667,30.6933333 107.16,34.2 C104.133333,37.7066667 102.62,43.5 102.62,51.58 L102.62,84.12 L93.22,84.12 L93.22,22 L100.86,22 L102.38,30.5 L102.84,30.5 C104.780291,27.4233208 107.554629,24.9610956 110.84,23.4 C114.470407,21.6846501 118.445153,20.822657 122.46,20.88 C129.94,20.88 135.566667,22.68 139.34,26.28 C143.113333,29.88 145,35.6466667 145,43.58 L145,84.12 L135.72,84.12 Z" fill="#6FBE4A"/><path d="M190.66,85.24 C181.486667,85.24 174.246667,82.4466667 168.94,76.86 C163.633333,71.2733333 160.966667,63.5133333 160.94,53.58 C160.94,43.58 163.406667,35.6333333 168.34,29.74 C173.222618,23.8619885 180.564734,20.5938964 188.2,20.9 C195.191819,20.5728329 201.963481,23.390079 206.66,28.58 C211.193333,33.7 213.46,40.4466667 213.46,48.82 L213.46,54.82 L170.72,54.82 C170.906667,62.1133333 172.746667,67.6466667 176.24,71.42 C180.111752,75.3496799 185.493487,77.4134078 191,77.08 C197.824056,77.0472126 204.569172,75.6178743 210.82,72.88 L210.82,81.26 C207.784089,82.5993483 204.62163,83.6311676 201.38,84.34 C197.846459,85.0029495 194.254614,85.3045037 190.66,85.24 Z M188.1,28.78 C183.576143,28.5578443 179.184858,30.3436337 176.1,33.66 C172.914845,37.4526836 171.072627,42.1918234 170.86,47.14 L203.4,47.14 C203.4,41.2066667 202.066667,36.6666667 199.4,33.52 C196.561539,30.287927 192.394836,28.5401241 188.1,28.78 Z" fill="#6FBE4A" fill-rule="nonzero"/><polygon fill="#6FBE4A" points="256.42 84.12 246.8 84.12 246.8 9.86 220.56 9.86 220.56 1.3 282.56 1.3 282.56 9.86 256.42 9.86"/><path d="M322,20.9 C324.48997,20.8750435 326.976043,21.1028777 329.42,21.58 L328.12,30.3 C325.889928,29.7774437 323.610197,29.4958299 321.32,29.46 C316.323224,29.4523319 311.590139,31.7012821 308.44,35.58 C304.813079,39.8125217 302.90106,45.2489337 303.08,50.82 L303.08,84.12 L293.68,84.12 L293.68,22 L301.44,22 L302.52,33.5 L302.98,33.5 C304.992512,29.7842967 307.840708,26.5869227 311.3,24.16 C314.452189,22.0105692 318.184815,20.8733393 322,20.9 Z" fill="#6FBE4A"/><path d="M349.86,22 L349.86,62.3 C349.86,67.3666667 351.013333,71.14 353.32,73.62 C355.626667,76.1 359.233333,77.3466667 364.14,77.36 C370.633333,77.36 375.38,75.5866667 378.38,72.04 C381.38,68.4933333 382.88,62.7 382.88,54.66 L382.88,22 L392.28,22 L392.28,84 L384.52,84 L383.16,75.68 L382.66,75.68 C380.727841,78.743999 377.949086,81.1823564 374.66,82.7 C370.991669,84.3784377 366.993434,85.2122576 362.96,85.14 C355.413333,85.14 349.76,83.3466667 346,79.76 C342.24,76.1733333 340.36,70.4333333 340.36,62.54 L340.36,22 L349.86,22 Z" fill="#6FBE4A"/><path d="M452.28,67.18 C452.529463,72.4402379 450.097935,77.468908 445.82,80.54 C441.513333,83.6733333 435.473333,85.24 427.7,85.24 C419.473333,85.24 413.053333,83.9066667 408.44,81.24 L408.44,72.62 C411.49933,74.1561274 414.718808,75.3500172 418.04,76.18 C421.266269,77.0234754 424.585353,77.460197 427.92,77.48 C431.834779,77.6966769 435.737934,76.8829448 439.24,75.12 C441.583454,73.7828873 443.095052,71.3546069 443.260342,68.6615928 C443.425631,65.9685788 442.222343,63.3736661 440.06,61.76 C436.269882,59.2036735 432.144032,57.1844972 427.8,55.76 C423.50696,54.2668622 419.378631,52.3367347 415.48,50 C413.257528,48.6430125 411.381372,46.7873987 410,44.58 C408.763803,42.349914 408.149068,39.8288107 408.22,37.28 C408.088421,32.4854659 410.420431,27.9572929 414.4,25.28 C418.52,22.36 424.166667,20.9 431.34,20.9 C438.077303,20.8872356 444.746467,22.2482895 450.94,24.9 L447.6,32.54 C442.257853,30.1646415 436.503864,28.8535201 430.66,28.68 C427.20827,28.4478044 423.756906,29.1380773 420.66,30.68 C418.540364,31.8248718 417.230811,34.0511135 417.26,36.46 C417.2194,37.9742343 417.66829,39.4611799 418.54,40.7 C419.654581,42.0912551 421.052121,43.2297394 422.64,44.04 C426.164605,45.7986068 429.79879,47.3284384 433.52,48.62 C440.88,51.2866667 445.853333,53.9533333 448.44,56.62 C451.1093,59.4673386 452.496866,63.2831466 452.28,67.18 L452.28,67.18 Z" fill="#6FBE4A"/><path d="M487.62,77.48 C489.23364,77.4871099 490.84532,77.3667354 492.44,77.12 C493.680906,76.9413132 494.90983,76.6875137 496.12,76.36 L496.12,83.56 C494.682408,84.1692639 493.168469,84.5797094 491.62,84.78 C489.848898,85.081951 488.056572,85.2424578 486.26,85.26 C474.26,85.26 468.26,78.9333333 468.26,66.28 L468.26,29.34 L459.36,29.34 L459.36,24.8 L468.26,20.8 L472.26,7.54 L477.7,7.54 L477.7,22 L495.7,22 L495.7,29.3 L477.7,29.3 L477.7,65.88 C477.493629,68.9768594 478.441207,72.0404588 480.36,74.48 C482.214928,76.5077751 484.874725,77.6068649 487.62,77.48 L487.62,77.48 Z" fill="#6FBE4A"/></g></g><text font-family="Arial" font-size="90" font-weight="500" fill="#696969"><tspan x="14.2548828" y="113">Powered by</tspan></text></g></g></svg>