<svg xmlns="http://www.w3.org/2000/svg" width="20.053" height="21.972" viewBox="0 0 20.053 21.972">
    <path id="slider001_-_E060" data-name="slider001 - E060"
          d="M7.84-26.736a1.912,1.912,0,0,0-1.9,1.92A1.929,1.929,0,0,0,7.68-22.9V-7.184H8V-22.9a1.933,1.933,0,0,0,1.776-1.92A1.939,1.939,0,0,0,7.84-26.736Zm0,3.52a1.591,1.591,0,0,1-1.584-1.6,1.591,1.591,0,0,1,1.584-1.6,1.618,1.618,0,0,1,1.616,1.6A1.618,1.618,0,0,1,7.84-23.216ZM-7.7-9.1V-24.816h-.32V-9.1a1.959,1.959,0,0,0-1.2.56,1.9,1.9,0,0,0-.56,1.36,1.9,1.9,0,0,0,.56,1.36,1.938,1.938,0,0,0,1.36.56,1.926,1.926,0,0,0,1.92-1.92A1.931,1.931,0,0,0-7.7-9.1ZM.16-17.92v-6.9H-.16v6.9A1.919,1.919,0,0,0-1.92-16,1.919,1.919,0,0,0-.16-14.08v6.9H.16v-6.9A1.943,1.943,0,0,0,1.92-16,1.943,1.943,0,0,0,.16-17.92ZM0-14.4A1.6,1.6,0,0,1-1.6-16,1.6,1.6,0,0,1,0-17.6,1.6,1.6,0,0,1,1.6-16,1.6,1.6,0,0,1,0-14.4ZM-7.856-5.584a1.584,1.584,0,0,1-1.136-.464,1.584,1.584,0,0,1-.464-1.136A1.584,1.584,0,0,1-8.992-8.32a1.584,1.584,0,0,1,1.136-.464,1.6,1.6,0,0,1,1.6,1.6A1.6,1.6,0,0,1-7.856-5.584Z"
          transform="translate(10.026 26.986)" stroke="#000" stroke-width="0.5"/>
</svg>
