<?xml version="1.0" encoding="utf-8"?>
<svg width="55px" height="54px" viewBox="0 0 55 54" version="1.1" xmlns="http://www.w3.org/2000/svg">
    <g stroke="none" stroke-width="1" fill="none" fill-rule="evenodd">
        <g transform="translate(-103.000000, -119.000000)" fill-rule="nonzero">
            <g transform="translate(103.000000, 119.000000)">
                <g>
                    <g>
                        <g>
                            <ellipse cx="27.3" cy="27" fill="#378E07" rx="27.1" ry="27"></ellipse>
                            <path
                                    d="M21.9,37.9 L32.3,39.5 C32.3,39.5 37.3,36.4 38.1,33.7 C38.5,32.5 39.6,28.7 40,27.9 C40.4,27.1 41.2,26 41.5,25.2 C41.8,24.4 41.9,22.1 40.7,22.1 C40.4,22.1 40.1,22.6 39.9,22.8 C39.7,23.1 39.4,23.4 39.1,23.6 C38.6,23.9 37.9,23.9 37.5,24.5 C37.2,25.1 36.9,25.7 36.6,26.4 C36.3,26.9 35.9,27.3 35.5,27.7 C34,29 31.8,28.8 30.5,27.3 C30.1,26.9 29.9,26.4 29.8,25.8 C29.8,24.4 30.4,23.1 31.4,22.1 C31.6,21.8 32,21.6 32.4,21.6 C32.8,21.7 33.1,21.8 33.5,21.9 C34.2,22.1 34.9,22.4 35.6,22.7 C36.4,23.1 38.7,23.5 39.1,21.9 C39.1,21.1 32.9,17.6 32.9,17.6 C32,17.1 30.9,17.3 30.2,18 C29.6,18.6 29,19.1 28.3,19.5 C28.3,19.5 28.3,16.4 29.8,14.9 C31.3,13.4 34.5,10.6 34.5,10.6 C34.5,10.6 35.3,9.4 34.5,8.7 C33.7,8 32.6,8.7 32.6,8.7 C29.9,10.5 27.5,12.7 25.6,15.3 C25.2,14.5 25.6,12.2 25.6,12.2 C26.3,11.2 27,10.2 27.5,9.1 C27.5,8.7 27.9,6.8 26.3,6.8 C25.5,7.2 24.9,8.3 24.4,9 C23.6,9.8 22.9,10.8 22.4,11.8 C21.9,13.2 22.2,15.1 22.2,16.6 C22.2,17.3 21.8,18.8 22.1,19.5 C21.6,18.3 21.4,17 21.3,15.6 C21.3,13.7 21.3,9.8 19,10.6 C19,13.4 18.7,16.3 18.6,19.1 C18.5,20.4 18.5,21.6 18.6,22.9 C19.1,25.4 19.7,27.9 20.6,30.3 C21,31.4 21.5,32.5 21.8,33.6 C21.8,34 21.8,37.9 21.9,37.9 Z"
                                    fill="#FFFFFF"></path>
                            <path
                                    d="M24.8,26.4 C24.8,26.4 27.9,30.3 28.3,31.8 C28.7,33.3 29.1,34.1 28.3,36.1 C29.8,35.3 32.9,33 24.8,26.4 Z"
                                    fill="#378E07"></path>
                            <path
                                    d="M18.5,45.1 L33.3,45.1 C33.6,45.1 33.8,44.9 33.8,44.6 L33.8,41.3 C33.8,41 33.6,40.8 33.3,40.8 L18.6,39 C18.3,39 18.1,39.2 18,39.4 C18,39.4 18,39.4 18,39.4 L18,44.6 C18,44.9 18.2,45.1 18.5,45.1 C18.5,45.1 18.5,45.1 18.5,45.1 Z"
                                    fill="#FFFFFF"></path>
                            <circle fill="#378E07" cx="31" cy="43" r="1"></circle>
                        </g>
                    </g>
                </g>
            </g>
        </g>
    </g>
</svg>
