<svg height="35.526" viewBox="0 0 35.629 35.526" width="35.629" xmlns="http://www.w3.org/2000/svg">
    <path
        d="M202.878,96.352c-5.642-1.088-5.925-2.848-5.925-3.989v-.681a10.842,10.842,0,0,0,3.246-5.059h.053c1.716,0,2.167-3.591,2.167-4.157s.053-2.653-1.707-2.653a11.5,11.5,0,0,0,.115-4.218,8.439,8.439,0,0,0-2.733-5.554,8.092,8.092,0,0,0-5.368-1.574,8.985,8.985,0,0,0-4.475,1.105c-2.865,1.769-4.236,5.81-3.538,10.215-1.769,0-1.707,2.167-1.707,2.653s.4,4.157,2.158,4.157a10.6,10.6,0,0,0,2.653,5.129v.681c0,1.141.283,2.848-5.412,3.874a9.083,9.083,0,0,0-7.075,6.261h34.2A8.34,8.34,0,0,0,202.878,96.352Z"
        fill="none" stroke="#ffffff"
        stroke-linecap="round"
        stroke-linejoin="round"
        stroke-width="1.43" transform="translate(-174.615 -67.732)"/>
</svg>
