<svg xmlns="http://www.w3.org/2000/svg" viewBox="0 0 24.2 24.2"><title>Zasób 1</title><g id="Warstwa_2" data-name="Warstwa 2"><g id="Warstwa_1-2" data-name="Warstwa 1"><path d="M22.85,16.35a4.62,4.62,0,0,0-7.06.67L8.93,13.1a4.56,4.56,0,0,0,.27-1.5,4.47,4.47,0,0,0-.27-1.5l6.45-3.69a4.41,4.41,0,0,0,1,1.44,4.54,4.54,0,0,0,1.49,1,4.6,4.6,0,0,0,3.52,0,4.65,4.65,0,0,0,2.49-2.49,4.6,4.6,0,0,0,0-3.52,4.6,4.6,0,0,0-8.5,0A4.61,4.61,0,0,0,15,4.6a4.34,4.34,0,0,0,.06.62L8.41,9a4.52,4.52,0,0,0-.56-.67,4.4,4.4,0,0,0-1.49-1,4.57,4.57,0,0,0-3.52,0,4.4,4.4,0,0,0-1.49,1,4.54,4.54,0,0,0-1,1.49,4.6,4.6,0,0,0,0,3.52,4.65,4.65,0,0,0,2.49,2.49,4.6,4.6,0,0,0,3.52,0,4.54,4.54,0,0,0,1.49-1,5.1,5.1,0,0,0,.56-.67l6.86,3.92A4.47,4.47,0,0,0,15,19.6a4.64,4.64,0,0,0,.35,1.76,4.65,4.65,0,0,0,2.49,2.49,4.6,4.6,0,0,0,3.52,0,4.65,4.65,0,0,0,2.49-2.49,4.6,4.6,0,0,0,0-3.52A4.44,4.44,0,0,0,22.85,16.35Zm-6.39-13A3.37,3.37,0,0,1,18.3,1.46a3.38,3.38,0,0,1,2.6,0A3.37,3.37,0,0,1,22.74,3.3,3.39,3.39,0,0,1,23,4.6a3.43,3.43,0,0,1-.26,1.3A3.39,3.39,0,0,1,22,7a3.19,3.19,0,0,1-1.1.74,3.44,3.44,0,0,1-2.6,0A3.19,3.19,0,0,1,17.2,7a3.39,3.39,0,0,1-.74-1.1,3.43,3.43,0,0,1-.26-1.3A3.39,3.39,0,0,1,16.46,3.3ZM7.74,12.9A3.28,3.28,0,0,1,7,14a3.19,3.19,0,0,1-1.1.74,3.44,3.44,0,0,1-2.6,0A3.19,3.19,0,0,1,2.2,14a3.28,3.28,0,0,1-.74-1.1,3.43,3.43,0,0,1-.26-1.3,3.39,3.39,0,0,1,.26-1.3A3.37,3.37,0,0,1,3.3,8.46a3.38,3.38,0,0,1,2.6,0A3.37,3.37,0,0,1,7.74,10.3,3.39,3.39,0,0,1,8,11.6,3.43,3.43,0,0,1,7.74,12.9Zm15,8A3.28,3.28,0,0,1,22,22a3.19,3.19,0,0,1-1.1.74,3.44,3.44,0,0,1-2.6,0A3.19,3.19,0,0,1,17.2,22a3.28,3.28,0,0,1-.74-1.1,3.25,3.25,0,0,1-.26-1.3,3.39,3.39,0,0,1,.26-1.3,3.37,3.37,0,0,1,1.84-1.84,3.38,3.38,0,0,1,2.6,0,3.37,3.37,0,0,1,1.84,1.84A3.39,3.39,0,0,1,23,19.6,3.25,3.25,0,0,1,22.74,20.9Z"/></g></g></svg>